<?xml version="1.0" encoding="UTF-8" standalone="no"?><!DOCTYPE svg PUBLIC "-//W3C//DTD SVG 1.1//EN" "http://www.w3.org/Graphics/SVG/1.1/DTD/svg11.dtd"><svg width="100%" height="100%" viewBox="0 0 16 25" version="1.1" xmlns="http://www.w3.org/2000/svg" xmlns:xlink="http://www.w3.org/1999/xlink" xml:space="preserve" xmlns:serif="http://www.serif.com/" style="fill-rule:evenodd;clip-rule:evenodd;stroke-linejoin:round;stroke-miterlimit:2;"><g id="estimate-8"><path id="Rectangle" d="M16,2.959l0,20c0,1.103 -0.896,2 -2,2l-12,-0c-1.104,-0 -2,-0.897 -2,-2l0,-20c0,-1.104 0.896,-2 2,-2l12,-0c1.104,-0 2,0.896 2,2Z" style="fill:#4a4a4a;fill-opacity:0;"/><g><path id="Rectangle1" serif:id="Rectangle" d="M12,14.601l0,0.333c0,0.214 -0.174,0.388 -0.388,0.388l-7.224,0c-0.214,0 -0.388,-0.174 -0.388,-0.388l0,-0.333c0,-0.214 0.174,-0.388 0.388,-0.388l7.224,0c0.214,0 0.388,0.174 0.388,0.388Z"/><path id="Rectangle2" serif:id="Rectangle" d="M12,12.36l0,0.333c0,0.214 -0.174,0.388 -0.388,0.388l-7.224,0c-0.214,0 -0.388,-0.174 -0.388,-0.388l0,-0.333c0,-0.214 0.174,-0.388 0.388,-0.388l7.224,0c0.214,0 0.388,0.174 0.388,0.388Z"/><path id="Rectangle3" serif:id="Rectangle" d="M10.619,20.654l-0.579,0.086c-0.374,0.056 -0.804,-0.163 -0.96,-0.487l-4.091,-8.466c-0.157,-0.324 0.019,-0.632 0.392,-0.688l0.579,-0.086c0.374,-0.055 0.804,0.163 0.96,0.487l4.091,8.466c0.157,0.324 -0.019,0.633 -0.392,0.688Z"/><path id="Rectangle4" serif:id="Rectangle" d="M12,16.819l0,0.333c0,0.214 -0.174,0.388 -0.388,0.388l-7.224,0c-0.214,0 -0.388,-0.174 -0.388,-0.388l0,-0.333c0,-0.214 0.174,-0.388 0.388,-0.388l7.224,0c0.214,0 0.388,0.174 0.388,0.388Z"/><path id="Rectangle5" serif:id="Rectangle" d="M12,19.037l0,0.333c0,0.214 -0.174,0.388 -0.388,0.388l-7.224,0c-0.214,0 -0.388,-0.174 -0.388,-0.388l0,-0.333c0,-0.214 0.174,-0.388 0.388,-0.388l7.224,0c0.214,0 0.388,0.174 0.388,0.388Z"/></g><path id="Rectangle6" serif:id="Rectangle" d="M12,9.36l0,0.333c0,0.214 -0.174,0.388 -0.388,0.388l-7.224,0c-0.214,0 -0.388,-0.174 -0.388,-0.388l0,-0.333c0,-0.214 0.174,-0.388 0.388,-0.388l7.224,0c0.214,0 0.388,0.174 0.388,0.388Z"/><path id="Rectangle7" serif:id="Rectangle" d="M12,7.36l0,0.333c0,0.214 -0.174,0.388 -0.388,0.388l-7.224,0c-0.214,0 -0.388,-0.174 -0.388,-0.388l0,-0.333c0,-0.214 0.174,-0.388 0.388,-0.388l7.224,0c0.214,0 0.388,0.174 0.388,0.388Z"/><path id="Rectangle8" serif:id="Rectangle" d="M12,5.36l0,0.333c0,0.214 -0.174,0.388 -0.388,0.388l-7.224,0c-0.214,0 -0.388,-0.174 -0.388,-0.388l0,-0.333c0,-0.214 0.174,-0.388 0.388,-0.388l7.224,0c0.214,0 0.388,0.174 0.388,0.388Z"/><rect id="Rectangle9" serif:id="Rectangle" x="2" y="20.959" width="12" height="1" style="fill:#9b9b9b;"/></g></svg>