<?xml version="1.0" encoding="UTF-8" standalone="no"?><!DOCTYPE svg PUBLIC "-//W3C//DTD SVG 1.1//EN" "http://www.w3.org/Graphics/SVG/1.1/DTD/svg11.dtd"><svg width="100%" height="100%" viewBox="0 0 16 25" version="1.1" xmlns="http://www.w3.org/2000/svg" xmlns:xlink="http://www.w3.org/1999/xlink" xml:space="preserve" xmlns:serif="http://www.serif.com/" style="fill-rule:evenodd;clip-rule:evenodd;stroke-linejoin:round;stroke-miterlimit:2;"><g id="estimate-4"><path id="Rectangle" d="M16,2.959l0,20c0,1.103 -0.896,2 -2,2l-12,-0c-1.104,-0 -2,-0.897 -2,-2l0,-20c0,-1.104 0.896,-2 2,-2l12,-0c1.104,-0 2,0.896 2,2Z" style="fill:#4a4a4a;fill-opacity:0;"/><path id="Rectangle1" serif:id="Rectangle" d="M12,9.659l0,0.6c0,0.386 -0.314,0.7 -0.7,0.7l-6.6,-0c-0.386,-0 -0.7,-0.314 -0.7,-0.7l0,-0.6c0,-0.387 0.314,-0.7 0.7,-0.7l6.6,-0c0.386,-0 0.7,0.313 0.7,0.7Z"/><path id="Rectangle2" serif:id="Rectangle" d="M12,5.617l0,0.6c0,0.387 -0.314,0.7 -0.7,0.7l-6.6,0c-0.386,0 -0.7,-0.313 -0.7,-0.7l0,-0.6c0,-0.386 0.314,-0.7 0.7,-0.7l6.6,0c0.386,0 0.7,0.314 0.7,0.7Z"/><path id="Rectangle3" serif:id="Rectangle" d="M12,13.659l0,0.6c0,0.386 -0.314,0.7 -0.7,0.7l-6.6,-0c-0.386,-0 -0.7,-0.314 -0.7,-0.7l0,-0.6c0,-0.387 0.314,-0.7 0.7,-0.7l6.6,-0c0.386,-0 0.7,0.313 0.7,0.7Z"/><path id="Rectangle4" serif:id="Rectangle" d="M12,17.659l0,0.6c0,0.386 -0.314,0.7 -0.7,0.7l-6.6,-0c-0.386,-0 -0.7,-0.314 -0.7,-0.7l0,-0.6c0,-0.387 0.314,-0.7 0.7,-0.7l6.6,-0c0.386,-0 0.7,0.313 0.7,0.7Z"/><rect id="Rectangle5" serif:id="Rectangle" x="2" y="20.959" width="12" height="1" style="fill:#9b9b9b;"/></g></svg>