<?xml version="1.0" encoding="UTF-8" standalone="no"?><!DOCTYPE svg PUBLIC "-//W3C//DTD SVG 1.1//EN" "http://www.w3.org/Graphics/SVG/1.1/DTD/svg11.dtd"><svg width="100%" height="100%" viewBox="0 0 16 25" version="1.1" xmlns="http://www.w3.org/2000/svg" xmlns:xlink="http://www.w3.org/1999/xlink" xml:space="preserve" xmlns:serif="http://www.serif.com/" style="fill-rule:evenodd;clip-rule:evenodd;stroke-linejoin:round;stroke-miterlimit:2;"><g id="point-5"><path id="Rectangle" d="M16,2.917l0,20c0,1.104 -0.896,2 -2,2l-12,0c-1.104,0 -2,-0.896 -2,-2l0,-20c0,-1.104 0.896,-2 2,-2l12,0c1.104,0 2,0.896 2,2Z" style="fill:#4a4a4a;fill-opacity:0;"/><path id="Rectangle1" serif:id="Rectangle" d="M12,9.617l0,0.6c0,0.387 -0.314,0.7 -0.7,0.7l-6.6,0c-0.386,0 -0.7,-0.313 -0.7,-0.7l0,-0.6c0,-0.386 0.314,-0.7 0.7,-0.7l6.6,0c0.386,0 0.7,0.314 0.7,0.7Z"/><path id="Rectangle2" serif:id="Rectangle" d="M12,5.576l0,0.6c0,0.386 -0.314,0.7 -0.7,0.7l-6.6,-0c-0.386,-0 -0.7,-0.314 -0.7,-0.7l0,-0.6c0,-0.387 0.314,-0.7 0.7,-0.7l6.6,-0c0.386,-0 0.7,0.313 0.7,0.7Z"/><path id="Rectangle3" serif:id="Rectangle" d="M10.619,20.533l-0.579,0.155c-0.374,0.1 -0.758,-0.122 -0.858,-0.495l-4.296,-16.034c-0.1,-0.373 0.122,-0.758 0.495,-0.858l0.579,-0.155c0.374,-0.1 0.758,0.122 0.858,0.495l4.296,16.035c0.1,0.373 -0.122,0.757 -0.495,0.857Z"/><path id="Rectangle4" serif:id="Rectangle" d="M12,13.617l0,0.6c0,0.387 -0.314,0.7 -0.7,0.7l-6.6,0c-0.386,0 -0.7,-0.313 -0.7,-0.7l0,-0.6c0,-0.386 0.314,-0.7 0.7,-0.7l6.6,0c0.386,0 0.7,0.314 0.7,0.7Z"/><path id="Rectangle5" serif:id="Rectangle" d="M12,17.617l0,0.6c0,0.387 -0.314,0.7 -0.7,0.7l-6.6,0c-0.386,0 -0.7,-0.313 -0.7,-0.7l0,-0.6c0,-0.386 0.314,-0.7 0.7,-0.7l6.6,0c0.386,0 0.7,0.314 0.7,0.7Z"/></g></svg>